<?xml version="1.0" encoding="UTF-8" standalone="no"?>
<svg
   xmlns:dc="http://purl.org/dc/elements/1.1/"
   xmlns:cc="http://creativecommons.org/ns#"
   xmlns:rdf="http://www.w3.org/1999/02/22-rdf-syntax-ns#"
   xmlns:svg="http://www.w3.org/2000/svg"
   xmlns="http://www.w3.org/2000/svg"
   xmlns:sodipodi="http://sodipodi.sourceforge.net/DTD/sodipodi-0.dtd"
   xmlns:inkscape="http://www.inkscape.org/namespaces/inkscape"
   viewBox="0 0 751.37 247.26"
   version="1.1"
   id="svg22"
   sodipodi:docname="logo.svg"
   inkscape:version="0.92.4 (5da689c313, 2019-01-14)">
  <metadata
     id="metadata26">
    <rdf:RDF>
      <cc:Work
         rdf:about="">
        <dc:format>image/svg+xml</dc:format>
        <dc:type
           rdf:resource="http://purl.org/dc/dcmitype/StillImage" />
      </cc:Work>
    </rdf:RDF>
  </metadata>
  <sodipodi:namedview
     pagecolor="#ffffff"
     bordercolor="#666666"
     borderopacity="1"
     objecttolerance="10"
     gridtolerance="10"
     guidetolerance="10"
     inkscape:pageopacity="0"
     inkscape:pageshadow="2"
     inkscape:window-width="1366"
     inkscape:window-height="705"
     id="namedview24"
     showgrid="false"
     inkscape:zoom="0.55099352"
     inkscape:cx="58.076908"
     inkscape:cy="123.63"
     inkscape:window-x="-8"
     inkscape:window-y="-8"
     inkscape:window-maximized="1"
     inkscape:current-layer="Layer_2" />
  <defs
     id="defs4">
    <style
       id="style2">.cls-1{fill:#97ce8d;}.cls-2{fill:#f5e6e8;}</style>
  </defs>
  <g
     id="Layer_2"
     data-name="Layer 2">
    <path
       style="fill:#38333f;fill-opacity:1"
       inkscape:connector-curvature="0"
       id="path6"
       d="M 78.05,26.15 A 5.2,5.2 0 0 1 72.14,30 65.8,65.8 0 0 0 59.89,28.73 q -7.55,0 -11,4.53 -3.45,4.53 -3.34,15.8 l -0.2,18.61 A 5.25,5.25 0 0 0 50.6,73 h 15.87 a 5.24,5.24 0 0 1 5.2,5.94 l -1.36,10.11 a 5.25,5.25 0 0 1 -5.2,4.55 H 50.5 a 5.24,5.24 0 0 0 -5.24,5.21 L 45,129.18 c 0,0.1 0,0.19 0,0.29 l 2.55,54.41 a 5.26,5.26 0 0 1 -4.29,5.41 l -22.94,4.25 a 5.25,5.25 0 0 1 -6.2,-5.42 L 16.8,133.8 c 0,-0.13 0,-0.26 0,-0.39 L 16,98.71 A 5.25,5.25 0 0 0 10.75,93.6 H 5.25 A 5.25,5.25 0 0 1 0.05,87.65 L 1.41,77.51 A 5.24,5.24 0 0 1 6.61,73 H 10 a 5.24,5.24 0 0 0 5.24,-5.32 L 15.1,53.84 Q 15.1,31.46 28.94,15.73 42.78,0 62.65,0 a 107.71,107.71 0 0 1 16,1.23 5.28,5.28 0 0 1 4.35,6.59 z"
       class="cls-1" />
    <path
       style="fill:#38333f;fill-opacity:1"
       inkscape:connector-curvature="0"
       id="path8"
       d="m 110,194.74 q -13.59,0 -22,-8.93 -8.41,-8.93 -8.5,-23.52 L 81,133.61 a 4.51,4.51 0 0 0 0,-0.52 L 78.46,77.53 a 5.24,5.24 0 0 1 4.27,-5.4 l 22.75,-4.24 a 5.25,5.25 0 0 1 6.2,5.38 l -3,69.89 q 0,10.83 3.9,15.85 3.9,5.02 12.46,5 7.74,0 20.87,-7 a 5.31,5.31 0 0 0 2.78,-4.65 v -12 l -2.58,-61.63 a 5.24,5.24 0 0 1 4.28,-5.37 l 23,-4.26 a 5.25,5.25 0 0 1 6.2,5.41 l -2.7,56.13 V 131 l 0.25,20.48 a 68.86,68.86 0 0 0 6,27.6 5.3,5.3 0 0 1 -2.61,7 l -16.68,7.37 A 5.21,5.21 0 0 1 157,191 a 127.93,127.93 0 0 1 -5.47,-13 5.23,5.23 0 0 0 -8.69,-1.94 Q 124.19,194.74 110,194.74 Z"
       class="cls-1" />
    <path
       style="fill:#38333f;fill-opacity:1"
       inkscape:connector-curvature="0"
       id="path10"
       d="m 263.16,67.68 q 16.11,0 27,14.09 10.89,14.09 10.94,38 0,33.48 -17.23,54.23 -17.23,20.75 -42.87,20.74 -2.85,0 -6.06,-0.22 a 5.25,5.25 0 0 0 -5.61,5.36 l 1,37.67 a 5.25,5.25 0 0 1 -4.31,5.3 l -23.68,4.32 a 5.24,5.24 0 0 1 -6.18,-5.31 l 3.09,-108.26 h 0.25 a 458.88,458.88 0 0 0 -4.75,-55.54 5.17,5.17 0 0 1 4.05,-5.88 l 19.9,-4.28 a 5.29,5.29 0 0 1 6.35,4.61 q 1.09,10.36 1.88,20.58 0.49,-1.25 5.16,-6.91 4.67,-5.66 13.71,-12.08 9.06,-6.42 17.36,-6.42 z m -9.81,32.71 a 50.26,50.26 0 0 0 -23.13,5.77 5.27,5.27 0 0 0 -2.79,4.69 v 18.48 l 0.89,31.63 a 5.23,5.23 0 0 0 4.42,5 117.1,117.1 0 0 0 16.33,1.58 q 24.15,0 24.16,-33.59 0.01,-33.59 -19.88,-33.56 z"
       class="cls-1" />
    <path
       style="fill:#97ce8d;stroke:none;stroke-opacity:1;fill-opacity:1"
       inkscape:connector-curvature="0"
       id="path12"
       d="m 308.19,29.82 q 0,-8.43 6.54,-15.1 6.54,-6.67 15.09,-6.67 8.56,0 13.09,4.66 4,4.09 4.46,11.81 a 24.3,24.3 0 0 1 -7.3,19.07 19.68,19.68 0 0 1 -13.89,5.72 q -8.44,0 -13.21,-5.53 -4.77,-5.53 -4.78,-13.96 z m 35.15,43.48 -2.68,55.78 c 0,0.16 0,0.33 0,0.49 l 2.55,54.32 a 5.25,5.25 0 0 1 -4.28,5.4 l -22.7,4.24 a 5.25,5.25 0 0 1 -6.2,-5.42 l 2.68,-54.26 a 4.17,4.17 0 0 0 0,-0.5 l -2.54,-55.82 a 5.24,5.24 0 0 1 4.28,-5.4 l 22.7,-4.24 a 5.24,5.24 0 0 1 6.19,5.41 z"
       class="cls-2" />
    <path
       style="fill:#97ce8d;stroke:none;stroke-opacity:1;fill-opacity:1"
       inkscape:connector-curvature="0"
       id="path14"
       d="m 429.19,107.94 q -3,-5.79 -14.09,-5.79 -10,0 -22.56,7.25 a 5.29,5.29 0 0 0 -2.6,4.56 v 15.37 l 2.56,54.56 a 5.25,5.25 0 0 1 -4.28,5.4 l -22.7,4.24 a 5.25,5.25 0 0 1 -6.2,-5.42 L 362,133.83 c 0,-0.15 0,-0.31 0,-0.46 a 455.21,455.21 0 0 0 -4.75,-55.31 5.18,5.18 0 0 1 4.06,-5.88 l 19.92,-4.28 a 5.28,5.28 0 0 1 6.35,4.57 q 1.25,11.57 1.85,22.64 A 102.56,102.56 0 0 1 398,85.17 q 4.78,-4.9 15.1,-11.07 a 40.34,40.34 0 0 1 20.9,-6.17 25.26,25.26 0 0 1 17.87,6.8 28.58,28.58 0 0 1 6.92,10.12 5.21,5.21 0 0 0 8.59,1.52 q 17.85,-18.44 36.07,-18.44 13.33,0 21.13,8.94 7.8,8.94 7.8,24.28 l -1.5,27.92 c 0,0.17 0,0.34 0,0.52 l 2.55,55.55 a 5.24,5.24 0 0 1 -4.29,5.4 l -23,4.26 a 5.25,5.25 0 0 1 -6.19,-5.41 l 2.71,-58.3 q 0,-17.37 -3,-23.15 -3,-5.78 -13.84,-5.79 -9.81,0 -21.92,6.84 a 5.29,5.29 0 0 0 -2.63,4.31 l -0.84,15.77 c 0,0.17 0,0.34 0,0.52 l 2.57,55.55 a 5.24,5.24 0 0 1 -4.28,5.4 l -23,4.26 a 5.25,5.25 0 0 1 -6.2,-5.41 l 2.71,-58.3 q -0.02,-17.37 -3.04,-23.15 z"
       class="cls-2" />
    <path
       style="fill:#97ce8d;stroke:none;stroke-opacity:1;fill-opacity:1"
       inkscape:connector-curvature="0"
       id="path16"
       d="m 610.33,67.68 q 16.09,0 27,14.09 10.91,14.09 10.94,38 0,33.48 -17.23,54.23 -17.23,20.75 -42.9,20.75 -2.85,0 -6.06,-0.22 a 5.25,5.25 0 0 0 -5.61,5.36 l 1,37.67 a 5.24,5.24 0 0 1 -4.3,5.3 l -23.68,4.32 a 5.24,5.24 0 0 1 -6.18,-5.31 l 3.08,-108.26 h 0.25 A 454.69,454.69 0 0 0 541.89,78.07 5.17,5.17 0 0 1 546,72.18 l 19.89,-4.28 a 5.29,5.29 0 0 1 6.35,4.61 q 1.1,10.36 1.88,20.58 0.49,-1.25 5.16,-6.91 4.67,-5.66 13.72,-12.08 9,-6.42 17.33,-6.42 z m -9.81,32.71 a 50.23,50.23 0 0 0 -23.13,5.77 5.27,5.27 0 0 0 -2.79,4.69 v 18.48 l 0.89,31.63 a 5.22,5.22 0 0 0 4.42,5 117,117 0 0 0 16.33,1.58 q 24.15,0 24.15,-33.59 0,-33.59 -19.87,-33.56 z"
       class="cls-2" />
    <path
       style="fill:#97ce8d;fill-opacity:1"
       inkscape:connector-curvature="0"
       id="path18"
       d="m 658,185.31 q -9.43,-9.44 -9.44,-25.41 -0.01,-15.97 14.6,-27.68 14.58,-11.7 35.47,-11.7 h 17.11 v -4.28 q 0,-12.31 -5,-16.86 -5,-4.55 -18.87,-4.52 a 48.31,48.31 0 0 0 -13.71,2.39 96.63,96.63 0 0 0 -12.69,4.94 5.21,5.21 0 0 1 -7.05,-3 L 654.53,88.7 a 5.2,5.2 0 0 1 2,-6.2 132.8,132.8 0 0 1 22.84,-11.3 q 15.48,-6 25.54,-6 39.5,0 39.5,38.24 v 49.31 q 0,12.09 6.47,26.56 a 5.22,5.22 0 0 1 -2.65,7 l -17.16,7.29 a 5.23,5.23 0 0 1 -6.74,-2.47 c -1.48,-3 -2.78,-5.89 -3.93,-8.65 a 5.25,5.25 0 0 0 -8.81,-1.28 q -12.3,13.56 -29.32,13.56 -14.84,-0.02 -24.27,-9.45 z m 34.84,-16.23 q 9.24,0 20.81,-8.69 a 5.35,5.35 0 0 0 2.09,-4.23 v -10 a 5.27,5.27 0 0 0 -4.19,-5.15 90.72,90.72 0 0 0 -17.45,-2.12 q -15.86,0 -15.85,14.09 0,7.29 4,11.7 a 13.64,13.64 0 0 0 10.59,4.4 z"
       class="cls-2" />
  </g>
</svg>
