<svg width="100" height="100" viewBox="0 0 100 100" fill="none" xmlns="http://www.w3.org/2000/svg">
<rect x="27" y="13" width="52" height="75" fill="#F7E8EA"/>
<path fill-rule="evenodd" clip-rule="evenodd" d="M50 100C77.6142 100 100 77.6142 100 50C100 22.3858 77.6142 0 50 0C22.3858 0 0 22.3858 0 50C0 77.6142 22.3858 100 50 100ZM44.725 15C43.7929 15 43.0372 15.7644 43.0372 16.7073V18.4146H40.6743C39.7421 18.4146 38.9864 19.179 38.9864 20.122V43H66.6667V20.122C66.6667 19.179 65.9111 18.4146 64.9789 18.4146H62.6159V16.7073C62.6159 15.7644 61.8603 15 60.9281 15H44.725ZM37.5 52L33 54V57C31.5 54.5 29.0001 56.5 29.5 58.5C30 60.5 32.5 67 32.5 67C33 68 35 68 35.5 67C35.6504 66.3667 35.6505 66.3656 35.668 66.1504L35.668 66.1502C35.672 66.1013 35.6768 66.0413 35.6846 65.9603L35.7905 64.8537H38.9864V65.8781C39.099 67.5285 40.016 70.8293 42.784 70.8293C45.5521 70.8293 45.8221 72.7073 45.8221 74.8415C45.8221 76.9756 44.1323 78.7609 42.0245 78.8537H40.6743C39.7421 78.8537 38.9864 79.618 38.9864 80.561V85H66.6667V80.561C66.6667 79.618 65.9111 78.8537 64.9789 78.8537H63.6286C61.5209 78.7609 59.831 76.9756 59.831 74.8415C59.831 72.7073 60.1011 70.8293 62.8691 70.8293C65.6371 70.8293 66.5542 67.5285 66.6667 65.8781V45.0488H38.9864V61H36.0276V54.131L37.5 53.5L37.5 52Z" fill="#38333F"/>
</svg>
