<svg xmlns="http://www.w3.org/2000/svg" viewBox="0 0 751.37 247.26"><defs><style>.cls-1{fill:#97ce8d;}.cls-2{fill:#f5e6e8;}</style></defs><g id="Layer_2" data-name="Layer 2"><g id="Layer_1-2" data-name="Layer 1"><path class="cls-1" d="M78.05,26.15A5.2,5.2,0,0,1,72.14,30a65.8,65.8,0,0,0-12.25-1.27q-7.55,0-11,4.53T45.55,49.06l-.2,18.61A5.25,5.25,0,0,0,50.6,73H66.47a5.24,5.24,0,0,1,5.2,5.94L70.31,89.05a5.25,5.25,0,0,1-5.2,4.55H50.5a5.24,5.24,0,0,0-5.24,5.21L45,129.18c0,.1,0,.19,0,.29l2.55,54.41a5.26,5.26,0,0,1-4.29,5.41l-22.94,4.25a5.25,5.25,0,0,1-6.2-5.42l2.68-54.32c0-.13,0-.26,0-.39L16,98.71a5.25,5.25,0,0,0-5.25-5.11H5.25a5.25,5.25,0,0,1-5.2-5.95L1.41,77.51A5.24,5.24,0,0,1,6.61,73H10a5.24,5.24,0,0,0,5.24-5.32L15.1,53.84q0-22.38,13.84-38.11T62.65,0a107.71,107.71,0,0,1,16,1.23A5.28,5.28,0,0,1,83,7.82Z"/><path class="cls-1" d="M110,194.74q-13.59,0-22-8.93T79.5,162.29L81,133.61a4.51,4.51,0,0,0,0-.52L78.46,77.53a5.24,5.24,0,0,1,4.27-5.4l22.75-4.24a5.25,5.25,0,0,1,6.2,5.38l-3,69.89q0,10.83,3.9,15.85t12.46,5q7.74,0,20.87-7a5.31,5.31,0,0,0,2.78-4.65v-12l-2.58-61.63a5.24,5.24,0,0,1,4.28-5.37l23-4.26a5.25,5.25,0,0,1,6.2,5.41l-2.7,56.13V131l.25,20.48a68.86,68.86,0,0,0,6,27.6,5.3,5.3,0,0,1-2.61,7l-16.68,7.37A5.21,5.21,0,0,1,157,191a127.93,127.93,0,0,1-5.47-13,5.23,5.23,0,0,0-8.69-1.94Q124.19,194.74,110,194.74Z"/><path class="cls-1" d="M263.16,67.68q16.11,0,27,14.09t10.94,38q0,33.48-17.23,54.23T241,194.74q-2.85,0-6.06-.22a5.25,5.25,0,0,0-5.61,5.36l1,37.67a5.25,5.25,0,0,1-4.31,5.3l-23.68,4.32a5.24,5.24,0,0,1-6.18-5.31l3.09-108.26h.25a458.88,458.88,0,0,0-4.75-55.54,5.17,5.17,0,0,1,4.05-5.88L218.7,67.9a5.29,5.29,0,0,1,6.35,4.61q1.09,10.36,1.88,20.58.49-1.25,5.16-6.91T245.8,74.1Q254.86,67.68,263.16,67.68Zm-9.81,32.71a50.26,50.26,0,0,0-23.13,5.77,5.27,5.27,0,0,0-2.79,4.69v18.48l.89,31.63a5.23,5.23,0,0,0,4.42,5,117.1,117.1,0,0,0,16.33,1.58q24.15,0,24.16-33.59T253.35,100.39Z"/><path class="cls-2" d="M308.19,29.82q0-8.43,6.54-15.1t15.09-6.67q8.56,0,13.09,4.66,4,4.09,4.46,11.81a24.3,24.3,0,0,1-7.3,19.07,19.68,19.68,0,0,1-13.89,5.72q-8.44,0-13.21-5.53T308.19,29.82ZM343.34,73.3l-2.68,55.78c0,.16,0,.33,0,.49l2.55,54.32a5.25,5.25,0,0,1-4.28,5.4l-22.7,4.24a5.25,5.25,0,0,1-6.2-5.42l2.68-54.26a4.17,4.17,0,0,0,0-.5l-2.54-55.82a5.24,5.24,0,0,1,4.28-5.4l22.7-4.24A5.24,5.24,0,0,1,343.34,73.3Z"/><path class="cls-2" d="M429.19,107.94q-3-5.79-14.09-5.79-10,0-22.56,7.25a5.29,5.29,0,0,0-2.6,4.56v15.37l2.56,54.56a5.25,5.25,0,0,1-4.28,5.4l-22.7,4.24a5.25,5.25,0,0,1-6.2-5.42L362,133.83c0-.15,0-.31,0-.46a455.21,455.21,0,0,0-4.75-55.31,5.18,5.18,0,0,1,4.06-5.88l19.92-4.28a5.28,5.28,0,0,1,6.35,4.57q1.25,11.57,1.85,22.64A102.56,102.56,0,0,1,398,85.17q4.78-4.9,15.1-11.07A40.34,40.34,0,0,1,434,67.93a25.26,25.26,0,0,1,17.87,6.8,28.58,28.58,0,0,1,6.92,10.12,5.21,5.21,0,0,0,8.59,1.52q17.85-18.44,36.07-18.44,13.33,0,21.13,8.94t7.8,24.28l-1.5,27.92c0,.17,0,.34,0,.52l2.55,55.55a5.24,5.24,0,0,1-4.29,5.4l-23,4.26a5.25,5.25,0,0,1-6.19-5.41l2.71-58.3q0-17.37-3-23.15t-13.84-5.79q-9.81,0-21.92,6.84a5.29,5.29,0,0,0-2.63,4.31l-.84,15.77c0,.17,0,.34,0,.52L463,185.14a5.24,5.24,0,0,1-4.28,5.4l-23,4.26a5.25,5.25,0,0,1-6.2-5.41l2.71-58.3Q432.21,113.72,429.19,107.94Z"/><path class="cls-2" d="M610.33,67.68q16.09,0,27,14.09t10.94,38q0,33.48-17.23,54.23t-42.9,20.75q-2.85,0-6.06-.22a5.25,5.25,0,0,0-5.61,5.36l1,37.67a5.24,5.24,0,0,1-4.3,5.3l-23.68,4.32a5.24,5.24,0,0,1-6.18-5.31l3.08-108.26h.25a454.69,454.69,0,0,0-4.75-55.54A5.17,5.17,0,0,1,546,72.18l19.89-4.28a5.29,5.29,0,0,1,6.35,4.61q1.1,10.36,1.88,20.58.49-1.25,5.16-6.91T593,74.1Q602,67.68,610.33,67.68Zm-9.81,32.71a50.23,50.23,0,0,0-23.13,5.77,5.27,5.27,0,0,0-2.79,4.69v18.48l.89,31.63a5.22,5.22,0,0,0,4.42,5,117,117,0,0,0,16.33,1.58q24.15,0,24.15-33.59T600.52,100.39Z"/><path class="cls-2" d="M658,185.31q-9.43-9.44-9.44-25.41t14.6-27.68q14.58-11.7,35.47-11.7h17.11v-4.28q0-12.31-5-16.86t-18.87-4.52a48.31,48.31,0,0,0-13.71,2.39,96.63,96.63,0,0,0-12.69,4.94,5.21,5.21,0,0,1-7.05-3L654.53,88.7a5.2,5.2,0,0,1,2-6.2,132.8,132.8,0,0,1,22.84-11.3q15.48-6,25.54-6,39.5,0,39.5,38.24v49.31q0,12.09,6.47,26.56a5.22,5.22,0,0,1-2.65,7l-17.16,7.29a5.23,5.23,0,0,1-6.74-2.47c-1.48-3-2.78-5.89-3.93-8.65a5.25,5.25,0,0,0-8.81-1.28q-12.3,13.56-29.32,13.56Q667.43,194.74,658,185.31Zm34.84-16.23q9.24,0,20.81-8.69a5.35,5.35,0,0,0,2.09-4.23v-10a5.27,5.27,0,0,0-4.19-5.15,90.72,90.72,0,0,0-17.45-2.12q-15.86,0-15.85,14.09,0,7.29,4,11.7A13.64,13.64,0,0,0,692.84,169.08Z"/></g></g></svg>